<?xml version="1.0" encoding="UTF-8"?>
<svg width="1200pt" height="1200pt" version="1.1" viewBox="0 0 1200 1200" xmlns="http://www.w3.org/2000/svg">
 <path d="m754.6 344.39c-3.9141 0.09375-7.6367 1.7031-10.391 4.4883l-379.27 379.27c-2.293 2.3008-3.7852 5.2852-4.25 8.5l-16.059 101.55c-0.73438 4.7578 0.84375 9.582 4.25 12.988s8.2305 4.9844 12.988 4.25l101.55-16.059h0.003906c3.1328-0.51172 6.0234-2 8.2656-4.25l379.51-379.51h-0.003906c2.8008-2.8281 4.3672-6.6484 4.3672-10.625 0-3.9805-1.5664-7.8008-4.3672-10.629l-85.492-85.488h0.003907c-2.9258-2.9609-6.9414-4.5859-11.102-4.4883zm0.46875 36.605 64 64-365.11 365.11-76.281 12.043 12.043-76.043 365.34-365.11z"/>
</svg>
