<svg width="166" height="71" viewBox="0 0 166 71" fill="none" xmlns="http://www.w3.org/2000/svg">
<path d="M82.625 27.375C89.2082 21.0418 95.5416 15.6668 101.625 11.25C107.708 6.7501 112.833 3.75011 117 2.25C121.167 0.75011 125.708 0.000111 130.625 0C140.958 0.000111 149.292 3.45844 155.625 10.375C162.042 17.2084 165.25 25.5001 165.25 35.25C165.25 41.9167 163.833 48.0834 161 53.75C158.167 59.4167 154.125 63.7084 148.875 66.625C143.708 69.5417 137.75 71 131 71C122.25 71 114.583 69.125 108 65.375C101.5 61.625 93.0416 54.5417 82.625 44.125C71.7916 54.8751 63.1666 62.0417 56.75 65.625C50.3333 69.2084 42.8749 71 34.375 71C23.5416 71 15.0833 67.625 9 60.875C2.99999 54.1251 -7.99998e-06 45.5834 0 35.25C-7.99998e-06 25.5834 3.16666 17.2918 9.5 10.375C15.9166 3.45844 24.2916 0.000111 34.625 0C39.625 0.000111 44.2083 0.75011 48.375 2.25C52.5416 3.75011 57.6249 6.7501 63.625 11.25C69.7083 15.6668 76.0416 21.0418 82.625 27.375ZM90.75 35.125C99.5832 43.8751 106.833 49.8334 112.5 53C118.25 56.0834 123.958 57.6251 129.625 57.625C136.708 57.6251 142.25 55.5417 146.25 51.375C150.25 47.1251 152.25 42.0001 152.25 36C152.25 29.4167 150.25 24.0001 146.25 19.75C142.333 15.4168 137.125 13.2501 130.625 13.25C126.958 13.2501 123.417 13.9168 120 15.25C116.583 16.5001 112.5 18.7501 107.75 22C103 25.1668 97.3332 29.5417 90.75 35.125ZM74.5 35.125C68.4999 30.0417 63.1249 25.8751 58.375 22.625C53.6249 19.2918 49.4583 16.9168 45.875 15.5C42.2916 14.0834 38.375 13.3751 34.125 13.375C28.0416 13.3751 23 15.5001 19 19.75C15 24.0001 13 29.4167 13 36C13 40.5834 14.0416 44.4584 16.125 47.625C18.2083 50.7917 20.75 53.2501 23.75 55C26.8333 56.7501 30.6666 57.6251 35.25 57.625C41.2499 57.6251 47.0833 56.0417 52.75 52.875C58.4166 49.7084 65.6666 43.7917 74.5 35.125Z" fill="black"/>
</svg>
